# xmcd
#
# Track frame offsets:
#        150
#        10623
#        25725
#        41813
#        55630
#        69090
#        82748
#        94773
#        109548
#        123655
#        141675
#        158613
#        176663
#        198548
#
# Disc length: 2809 seconds
#
# Revision: 3
# Processed by: cddbd v1.5.1PL0 Copyright (c) Steve Scherf et al.
# Submitted via: ExactAudioCopy v0.95b2
#
DISCID=ae0af70e
DTITLE=Chet Baker - The Modern Jazz Giant
DYEAR=1900
DGENRE=Jazz
TTITLE0=My Funny Valentine
TTITLE1=My Buddy
TTITLE2=It's Always You
TTITLE3=But Not For Me
TTITLE4=I Get Along Without You Very Well
TTITLE5=Someone To Watch Over Me
TTITLE6=Look For The Silver Linning
TTITLE7=I Remember You
TTITLE8=This Is Always
TTITLE9=Long Ago And Far Away
TTITLE10=Let's Get Lost
TTITLE11=I Wish I Knew
TTITLE12=You Don't Know What Love Is
TTITLE13=Daybrake
EXTD=
EXTT0=
EXTT1=
EXTT2=
EXTT3=
EXTT4=
EXTT5=
EXTT6=
EXTT7=
EXTT8=
EXTT9=
EXTT10=
EXTT11=
EXTT12=
EXTT13=
PLAYORDER=
